<svg xmlns="http://www.w3.org/2000/svg" width="43" height="42" viewBox="0 0 43 42">
  <ellipse id="ai-faces-01" cx="21.5" cy="21" rx="21.5" ry="21" fill="#fa9b0b"/>
  <path id="Path_2266" data-name="Path 2266" d="M689.016,6567.624s5.641-1.406,7.521.8.519,7.257,0,8.026-9.411,2.031-10.553,0-1.643-12.35.983-16.449,5.956-3.651,5.956-3.651,2.054.9,1.078,2.717-4.138,2.037-4.519,4.838-.465,3.718-.465,3.718" transform="translate(-663.228 -6545.542)" fill="#fff"/>
  <path id="Path_2267" data-name="Path 2267" d="M689.016,6567.624s5.641-1.406,7.521.8.519,7.257,0,8.026-9.411,2.031-10.553,0-1.643-12.35.983-16.449,5.956-3.651,5.956-3.651,2.054.9,1.078,2.717-4.138,2.037-4.519,4.838-.465,3.718-.465,3.718" transform="translate(-676.645 -6545.542)" fill="#fff"/>
</svg>
