<svg xmlns="http://www.w3.org/2000/svg" width="26" height="18" viewBox="0 0 26 18">
  <g id="Component_136_71" data-name="Component 136 – 71" transform="translate(0 0)">
    <path id="Union_6" data-name="Union 6" d="M20.8,17V14.167h2.6V17ZM0,17V0H2.6V17Zm2.6-2.833V11.334H26v2.833ZM8.737,8.5V3.124s7.783-.608,10.944.809A6.67,6.67,0,0,1,23.4,8.5ZM2.6,5.666A2.724,2.724,0,0,1,5.2,2.833,2.724,2.724,0,0,1,7.8,5.666,2.724,2.724,0,0,1,5.2,8.5,2.724,2.724,0,0,1,2.6,5.666Z" transform="translate(0 0)" fill="#3f3f3f"/>
  </g>
</svg>
