<svg xmlns="http://www.w3.org/2000/svg" width="37" height="45" viewBox="0 0 37 45">
  <g id="Group_2807" data-name="Group 2807" transform="translate(-5188 -5116)">
    <g id="Group_2803" data-name="Group 2803" transform="translate(5187.542 5132.181)">
      <g id="Rectangle_1222" data-name="Rectangle 1222" transform="translate(0.458 -0.181)" fill="none" stroke="#3f3f3f" stroke-width="1">
        <rect width="11" height="29" stroke="none"/>
        <rect x="0.5" y="0.5" width="10" height="28" fill="none"/>
      </g>
      <g id="Rectangle_1223" data-name="Rectangle 1223" transform="translate(2.458 23.819)" fill="none" stroke="#3f3f3f" stroke-width="1">
        <rect width="2" height="1" stroke="none"/>
        <rect x="0.5" y="0.5" width="1" fill="none"/>
      </g>
      <g id="Rectangle_1224" data-name="Rectangle 1224" transform="translate(6.458 23.819)" fill="none" stroke="#3f3f3f" stroke-width="1">
        <rect width="3" height="1" stroke="none"/>
        <rect x="0.5" y="0.5" width="2" fill="none"/>
      </g>
      <g id="Rectangle_1225" data-name="Rectangle 1225" transform="translate(2.458 21.819)" fill="none" stroke="#3f3f3f" stroke-width="1">
        <rect width="2" height="1" stroke="none"/>
        <rect x="0.5" y="0.5" width="1" fill="none"/>
      </g>
      <g id="Rectangle_1226" data-name="Rectangle 1226" transform="translate(6.458 21.819)" fill="none" stroke="#3f3f3f" stroke-width="1">
        <rect width="3" height="1" stroke="none"/>
        <rect x="0.5" y="0.5" width="2" fill="none"/>
      </g>
      <g id="Rectangle_1227" data-name="Rectangle 1227" transform="translate(2.458 19.819)" fill="none" stroke="#3f3f3f" stroke-width="1">
        <rect width="2" height="1" stroke="none"/>
        <rect x="0.5" y="0.5" width="1" fill="none"/>
      </g>
      <g id="Rectangle_1228" data-name="Rectangle 1228" transform="translate(6.458 19.819)" fill="none" stroke="#3f3f3f" stroke-width="1">
        <rect width="3" height="1" stroke="none"/>
        <rect x="0.5" y="0.5" width="2" fill="none"/>
      </g>
      <g id="Rectangle_1229" data-name="Rectangle 1229" transform="translate(2.458 15.819)" fill="none" stroke="#3f3f3f" stroke-width="1">
        <rect width="2" height="1" stroke="none"/>
        <rect x="0.5" y="0.5" width="1" fill="none"/>
      </g>
      <g id="Rectangle_1230" data-name="Rectangle 1230" transform="translate(6.458 15.819)" fill="none" stroke="#3f3f3f" stroke-width="1">
        <rect width="3" height="1" stroke="none"/>
        <rect x="0.5" y="0.5" width="2" fill="none"/>
      </g>
      <g id="Rectangle_1231" data-name="Rectangle 1231" transform="translate(2.458 13.819)" fill="none" stroke="#3f3f3f" stroke-width="1">
        <rect width="2" height="1" stroke="none"/>
        <rect x="0.5" y="0.5" width="1" fill="none"/>
      </g>
      <g id="Rectangle_1232" data-name="Rectangle 1232" transform="translate(6.458 13.819)" fill="none" stroke="#3f3f3f" stroke-width="1">
        <rect width="3" height="1" stroke="none"/>
        <rect x="0.5" y="0.5" width="2" fill="none"/>
      </g>
      <g id="Rectangle_1233" data-name="Rectangle 1233" transform="translate(2.458 11.819)" fill="none" stroke="#3f3f3f" stroke-width="1">
        <rect width="2" height="1" stroke="none"/>
        <rect x="0.5" y="0.5" width="1" fill="none"/>
      </g>
      <g id="Rectangle_1234" data-name="Rectangle 1234" transform="translate(6.458 11.819)" fill="none" stroke="#3f3f3f" stroke-width="1">
        <rect width="3" height="1" stroke="none"/>
        <rect x="0.5" y="0.5" width="2" fill="none"/>
      </g>
      <g id="Rectangle_1235" data-name="Rectangle 1235" transform="translate(2.458 8.819)" fill="none" stroke="#3f3f3f" stroke-width="1">
        <rect width="2" height="2" stroke="none"/>
        <rect x="0.5" y="0.5" width="1" height="1" fill="none"/>
      </g>
      <g id="Rectangle_1236" data-name="Rectangle 1236" transform="translate(6.458 8.819)" fill="none" stroke="#3f3f3f" stroke-width="1">
        <rect width="3" height="2" stroke="none"/>
        <rect x="0.5" y="0.5" width="2" height="1" fill="none"/>
      </g>
      <g id="Rectangle_1237" data-name="Rectangle 1237" transform="translate(2.458 6.819)" fill="none" stroke="#3f3f3f" stroke-width="1">
        <rect width="2" height="1" stroke="none"/>
        <rect x="0.5" y="0.5" width="1" fill="none"/>
      </g>
      <g id="Rectangle_1238" data-name="Rectangle 1238" transform="translate(6.458 6.819)" fill="none" stroke="#3f3f3f" stroke-width="1">
        <rect width="3" height="1" stroke="none"/>
        <rect x="0.5" y="0.5" width="2" fill="none"/>
      </g>
      <g id="Rectangle_1239" data-name="Rectangle 1239" transform="translate(2.458 4.819)" fill="none" stroke="#3f3f3f" stroke-width="1">
        <rect width="2" height="1" stroke="none"/>
        <rect x="0.5" y="0.5" width="1" fill="none"/>
      </g>
      <g id="Rectangle_1240" data-name="Rectangle 1240" transform="translate(6.458 4.819)" fill="none" stroke="#3f3f3f" stroke-width="1">
        <rect width="3" height="1" stroke="none"/>
        <rect x="0.5" y="0.5" width="2" fill="none"/>
      </g>
    </g>
    <g id="Group_2804" data-name="Group 2804" transform="translate(5197.883 5128.734)">
      <g id="Rectangle_1222-2" data-name="Rectangle 1222" transform="translate(0.117 0.266)" fill="none" stroke="#3f3f3f" stroke-width="1">
        <rect width="11" height="32" stroke="none"/>
        <rect x="0.5" y="0.5" width="10" height="31" fill="none"/>
      </g>
      <g id="Rectangle_1223-2" data-name="Rectangle 1223" transform="translate(2.117 27.266)" fill="none" stroke="#3f3f3f" stroke-width="1">
        <rect width="2" height="1" stroke="none"/>
        <rect x="0.5" y="0.5" width="1" fill="none"/>
      </g>
      <g id="Rectangle_1224-2" data-name="Rectangle 1224" transform="translate(6.117 27.266)" fill="none" stroke="#3f3f3f" stroke-width="1">
        <rect width="2" height="1" stroke="none"/>
        <rect x="0.5" y="0.5" width="1" fill="none"/>
      </g>
      <g id="Rectangle_1225-2" data-name="Rectangle 1225" transform="translate(2.117 24.266)" fill="none" stroke="#3f3f3f" stroke-width="1">
        <rect width="2" height="1" stroke="none"/>
        <rect x="0.5" y="0.5" width="1" fill="none"/>
      </g>
      <g id="Rectangle_1226-2" data-name="Rectangle 1226" transform="translate(6.117 24.266)" fill="none" stroke="#3f3f3f" stroke-width="1">
        <rect width="2" height="1" stroke="none"/>
        <rect x="0.5" y="0.5" width="1" fill="none"/>
      </g>
      <g id="Rectangle_1227-2" data-name="Rectangle 1227" transform="translate(2.117 22.266)" fill="none" stroke="#3f3f3f" stroke-width="1">
        <rect width="2" height="1" stroke="none"/>
        <rect x="0.5" y="0.5" width="1" fill="none"/>
      </g>
      <g id="Rectangle_1228-2" data-name="Rectangle 1228" transform="translate(6.117 22.266)" fill="none" stroke="#3f3f3f" stroke-width="1">
        <rect width="2" height="1" stroke="none"/>
        <rect x="0.5" y="0.5" width="1" fill="none"/>
      </g>
      <g id="Rectangle_1229-2" data-name="Rectangle 1229" transform="translate(2.117 18.266)" fill="none" stroke="#3f3f3f" stroke-width="1">
        <rect width="2" height="1" stroke="none"/>
        <rect x="0.5" y="0.5" width="1" fill="none"/>
      </g>
      <g id="Rectangle_1230-2" data-name="Rectangle 1230" transform="translate(6.117 18.266)" fill="none" stroke="#3f3f3f" stroke-width="1">
        <rect width="2" height="1" stroke="none"/>
        <rect x="0.5" y="0.5" width="1" fill="none"/>
      </g>
      <g id="Rectangle_1231-2" data-name="Rectangle 1231" transform="translate(2.117 16.266)" fill="none" stroke="#3f3f3f" stroke-width="1">
        <rect width="2" height="1" stroke="none"/>
        <rect x="0.5" y="0.5" width="1" fill="none"/>
      </g>
      <g id="Rectangle_1232-2" data-name="Rectangle 1232" transform="translate(6.117 16.266)" fill="none" stroke="#3f3f3f" stroke-width="1">
        <rect width="2" height="1" stroke="none"/>
        <rect x="0.5" y="0.5" width="1" fill="none"/>
      </g>
      <g id="Rectangle_1233-2" data-name="Rectangle 1233" transform="translate(2.117 12.266)" fill="none" stroke="#3f3f3f" stroke-width="1">
        <rect width="2" height="2" stroke="none"/>
        <rect x="0.5" y="0.5" width="1" height="1" fill="none"/>
      </g>
      <g id="Rectangle_1234-2" data-name="Rectangle 1234" transform="translate(6.117 12.266)" fill="none" stroke="#3f3f3f" stroke-width="1">
        <rect width="2" height="2" stroke="none"/>
        <rect x="0.5" y="0.5" width="1" height="1" fill="none"/>
      </g>
      <g id="Rectangle_1235-2" data-name="Rectangle 1235" transform="translate(2.117 10.266)" fill="none" stroke="#3f3f3f" stroke-width="1">
        <rect width="2" height="1" stroke="none"/>
        <rect x="0.5" y="0.5" width="1" fill="none"/>
      </g>
      <g id="Rectangle_1236-2" data-name="Rectangle 1236" transform="translate(6.117 10.266)" fill="none" stroke="#3f3f3f" stroke-width="1">
        <rect width="2" height="1" stroke="none"/>
        <rect x="0.5" y="0.5" width="1" fill="none"/>
      </g>
      <g id="Rectangle_1237-2" data-name="Rectangle 1237" transform="translate(2.117 8.266)" fill="none" stroke="#3f3f3f" stroke-width="1">
        <rect width="2" height="1" stroke="none"/>
        <rect x="0.5" y="0.5" width="1" fill="none"/>
      </g>
      <g id="Rectangle_1238-2" data-name="Rectangle 1238" transform="translate(6.117 8.266)" fill="none" stroke="#3f3f3f" stroke-width="1">
        <rect width="2" height="1" stroke="none"/>
        <rect x="0.5" y="0.5" width="1" fill="none"/>
      </g>
      <g id="Rectangle_1239-2" data-name="Rectangle 1239" transform="translate(2.117 4.266)" fill="none" stroke="#3f3f3f" stroke-width="1">
        <rect width="2" height="1" stroke="none"/>
        <rect x="0.5" y="0.5" width="1" fill="none"/>
      </g>
      <g id="Rectangle_1240-2" data-name="Rectangle 1240" transform="translate(6.117 4.266)" fill="none" stroke="#3f3f3f" stroke-width="1">
        <rect width="2" height="1" stroke="none"/>
        <rect x="0.5" y="0.5" width="1" fill="none"/>
      </g>
    </g>
    <g id="Group_2805" data-name="Group 2805" transform="translate(5208.223 5135.627)">
      <g id="Rectangle_1222-3" data-name="Rectangle 1222" transform="translate(-0.223 0.373)" fill="none" stroke="#3f3f3f" stroke-width="1">
        <rect width="7" height="25" stroke="none"/>
        <rect x="0.5" y="0.5" width="6" height="24" fill="none"/>
      </g>
      <g id="Rectangle_1224-3" data-name="Rectangle 1224" transform="translate(2.777 20.373)" fill="none" stroke="#3f3f3f" stroke-width="1">
        <rect width="2" height="1" stroke="none"/>
        <rect x="0.5" y="0.5" width="1" fill="none"/>
      </g>
      <g id="Rectangle_1226-3" data-name="Rectangle 1226" transform="translate(2.777 18.373)" fill="none" stroke="#3f3f3f" stroke-width="1">
        <rect width="2" height="1" stroke="none"/>
        <rect x="0.5" y="0.5" width="1" fill="none"/>
      </g>
      <g id="Rectangle_1228-3" data-name="Rectangle 1228" transform="translate(2.777 16.373)" fill="none" stroke="#3f3f3f" stroke-width="1">
        <rect width="2" height="1" stroke="none"/>
        <rect x="0.5" y="0.5" width="1" fill="none"/>
      </g>
      <g id="Rectangle_1230-3" data-name="Rectangle 1230" transform="translate(2.777 13.373)" fill="none" stroke="#3f3f3f" stroke-width="1">
        <rect width="2" height="2" stroke="none"/>
        <rect x="0.5" y="0.5" width="1" height="1" fill="none"/>
      </g>
      <g id="Rectangle_1234-3" data-name="Rectangle 1234" transform="translate(2.777 11.373)" fill="none" stroke="#3f3f3f" stroke-width="1">
        <rect width="2" height="1" stroke="none"/>
        <rect x="0.5" y="0.5" width="1" fill="none"/>
      </g>
      <g id="Rectangle_1236-3" data-name="Rectangle 1236" transform="translate(2.777 9.373)" fill="none" stroke="#3f3f3f" stroke-width="1">
        <rect width="2" height="1" stroke="none"/>
        <rect x="0.5" y="0.5" width="1" fill="none"/>
      </g>
      <g id="Rectangle_1238-3" data-name="Rectangle 1238" transform="translate(2.777 7.373)" fill="none" stroke="#3f3f3f" stroke-width="1">
        <rect width="2" height="1" stroke="none"/>
        <rect x="0.5" y="0.5" width="1" fill="none"/>
      </g>
      <g id="Rectangle_1240-3" data-name="Rectangle 1240" transform="translate(2.777 4.373)" fill="none" stroke="#3f3f3f" stroke-width="1">
        <rect width="2" height="1" stroke="none"/>
        <rect x="0.5" y="0.5" width="1" fill="none"/>
      </g>
    </g>
    <g id="Group_2806" data-name="Group 2806" transform="translate(5213.968 5116.095)">
      <g id="Rectangle_1222-4" data-name="Rectangle 1222" transform="translate(0.032 -0.095)" fill="none" stroke="#3f3f3f" stroke-width="1">
        <rect width="11" height="45" stroke="none"/>
        <rect x="0.5" y="0.5" width="10" height="44" fill="none"/>
      </g>
      <g id="Rectangle_1223-3" data-name="Rectangle 1223" transform="translate(3.032 39.905)" fill="none" stroke="#3f3f3f" stroke-width="1">
        <rect width="3" height="1" stroke="none"/>
        <rect x="0.5" y="0.5" width="2" fill="none"/>
      </g>
      <g id="Rectangle_1224-4" data-name="Rectangle 1224" transform="translate(7.032 39.905)" fill="none" stroke="#3f3f3f" stroke-width="1">
        <rect width="2" height="1" stroke="none"/>
        <rect x="0.5" y="0.5" width="1" fill="none"/>
      </g>
      <g id="Rectangle_1225-3" data-name="Rectangle 1225" transform="translate(3.032 32.905)" fill="none" stroke="#3f3f3f" stroke-width="1">
        <rect width="3" height="2" stroke="none"/>
        <rect x="0.5" y="0.5" width="2" height="1" fill="none"/>
      </g>
      <g id="Rectangle_1226-4" data-name="Rectangle 1226" transform="translate(7.032 32.905)" fill="none" stroke="#3f3f3f" stroke-width="1">
        <rect width="2" height="2" stroke="none"/>
        <rect x="0.5" y="0.5" width="1" height="1" fill="none"/>
      </g>
      <g id="Rectangle_1227-3" data-name="Rectangle 1227" transform="translate(3.032 30.905)" fill="none" stroke="#3f3f3f" stroke-width="1">
        <rect width="3" height="1" stroke="none"/>
        <rect x="0.5" y="0.5" width="2" fill="none"/>
      </g>
      <g id="Rectangle_1228-4" data-name="Rectangle 1228" transform="translate(7.032 30.905)" fill="none" stroke="#3f3f3f" stroke-width="1">
        <rect width="2" height="1" stroke="none"/>
        <rect x="0.5" y="0.5" width="1" fill="none"/>
      </g>
      <g id="Rectangle_1229-3" data-name="Rectangle 1229" transform="translate(3.032 24.905)" fill="none" stroke="#3f3f3f" stroke-width="1">
        <rect width="3" height="2" stroke="none"/>
        <rect x="0.5" y="0.5" width="2" height="1" fill="none"/>
      </g>
      <g id="Rectangle_1230-4" data-name="Rectangle 1230" transform="translate(7.032 24.905)" fill="none" stroke="#3f3f3f" stroke-width="1">
        <rect width="2" height="2" stroke="none"/>
        <rect x="0.5" y="0.5" width="1" height="1" fill="none"/>
      </g>
      <g id="Rectangle_1231-3" data-name="Rectangle 1231" transform="translate(3.032 22.905)" fill="none" stroke="#3f3f3f" stroke-width="1">
        <rect width="3" height="1" stroke="none"/>
        <rect x="0.5" y="0.5" width="2" fill="none"/>
      </g>
      <g id="Rectangle_1232-3" data-name="Rectangle 1232" transform="translate(7.032 22.905)" fill="none" stroke="#3f3f3f" stroke-width="1">
        <rect width="2" height="1" stroke="none"/>
        <rect x="0.5" y="0.5" width="1" fill="none"/>
      </g>
      <g id="Rectangle_1233-3" data-name="Rectangle 1233" transform="translate(3.032 17.905)" fill="none" stroke="#3f3f3f" stroke-width="1">
        <rect width="3" height="2" stroke="none"/>
        <rect x="0.5" y="0.5" width="2" height="1" fill="none"/>
      </g>
      <g id="Rectangle_1234-4" data-name="Rectangle 1234" transform="translate(7.032 17.905)" fill="none" stroke="#3f3f3f" stroke-width="1">
        <rect width="2" height="2" stroke="none"/>
        <rect x="0.5" y="0.5" width="1" height="1" fill="none"/>
      </g>
      <g id="Rectangle_1235-3" data-name="Rectangle 1235" transform="translate(3.032 14.905)" fill="none" stroke="#3f3f3f" stroke-width="1">
        <rect width="3" height="1" stroke="none"/>
        <rect x="0.5" y="0.5" width="2" fill="none"/>
      </g>
      <g id="Rectangle_1236-4" data-name="Rectangle 1236" transform="translate(7.032 14.905)" fill="none" stroke="#3f3f3f" stroke-width="1">
        <rect width="2" height="1" stroke="none"/>
        <rect x="0.5" y="0.5" width="1" fill="none"/>
      </g>
      <g id="Rectangle_1237-3" data-name="Rectangle 1237" transform="translate(3.032 12.905)" fill="none" stroke="#3f3f3f" stroke-width="1">
        <rect width="3" height="1" stroke="none"/>
        <rect x="0.5" y="0.5" width="2" fill="none"/>
      </g>
      <g id="Rectangle_1238-4" data-name="Rectangle 1238" transform="translate(7.032 12.905)" fill="none" stroke="#3f3f3f" stroke-width="1">
        <rect width="2" height="1" stroke="none"/>
        <rect x="0.5" y="0.5" width="1" fill="none"/>
      </g>
      <g id="Rectangle_1239-3" data-name="Rectangle 1239" transform="translate(3.032 8.905)" fill="none" stroke="#3f3f3f" stroke-width="1">
        <rect width="3" height="1" stroke="none"/>
        <rect x="0.5" y="0.5" width="2" fill="none"/>
      </g>
      <g id="Rectangle_1240-4" data-name="Rectangle 1240" transform="translate(7.032 8.905)" fill="none" stroke="#3f3f3f" stroke-width="1">
        <rect width="2" height="1" stroke="none"/>
        <rect x="0.5" y="0.5" width="1" fill="none"/>
      </g>
    </g>
  </g>
</svg>
