<svg id="Component_139_71" data-name="Component 139 – 71" xmlns="http://www.w3.org/2000/svg" width="23" height="17.262" viewBox="0 0 23 17.262">
  <path id="Subtraction_10" data-name="Subtraction 10" d="M20,9H3A3,3,0,0,1,0,6V3A3,3,0,0,1,3,0H20a3,3,0,0,1,3,3V6A3,3,0,0,1,20,9ZM17.94,3a1.445,1.445,0,0,0-1.38,1.5,1.385,1.385,0,1,0,2.76,0A1.445,1.445,0,0,0,17.94,3ZM4.14,3A1.445,1.445,0,0,0,2.76,4.5,1.445,1.445,0,0,0,4.14,6,1.445,1.445,0,0,0,5.52,4.5,1.445,1.445,0,0,0,4.14,3Z" transform="translate(0 5.262)" fill="#2aaaac"/>
  <path id="Rectangle_1092" data-name="Rectangle 1092" d="M0,0H4A0,0,0,0,1,4,0V5A1,1,0,0,1,3,6H1A1,1,0,0,1,0,5V0A0,0,0,0,1,0,0Z" transform="translate(1 11.262)" fill="#2aaaac"/>
  <path id="Rectangle_1093" data-name="Rectangle 1093" d="M0,0H4A0,0,0,0,1,4,0V5A1,1,0,0,1,3,6H1A1,1,0,0,1,0,5V0A0,0,0,0,1,0,0Z" transform="translate(18 11.262)" fill="#2aaaac"/>
  <g id="Path_3423" data-name="Path 3423" transform="translate(4.06)" fill="none">
    <path d="M3.306,0h8.469a3.7,3.7,0,0,1,3.232,2.321L16.054,5.8H-1.174L.333,2.321C.988,1.163,1.747,0,3.306,0Z" stroke="none"/>
    <path d="M 3.306025505065918 0.9999980926513672 C 2.400759696960449 0.9999980926513672 1.909953117370605 1.570350170135498 1.229358673095703 2.767856121063232 L 0.3481731414794922 4.803698062896729 L 14.70932483673096 4.803698062896729 L 14.06972312927246 2.677562236785889 C 13.69520092010498 1.890856981277466 12.88234233856201 0.9999980926513672 11.77463531494141 0.9999980926513672 L 3.306025505065918 0.9999980926513672 M 3.306025505065918 -1.9073486328125e-06 L 11.77463531494141 -1.9073486328125e-06 C 13.33366584777832 -1.9073486328125e-06 14.4824161529541 1.162578105926514 15.00687599182129 2.321478128433228 L 16.0544261932373 5.803698062896729 L -1.174314498901367 5.803698062896729 L 0.332916259765625 2.321478128433228 C 0.987635612487793 1.162578105926514 1.74699592590332 -1.9073486328125e-06 3.306025505065918 -1.9073486328125e-06 Z" stroke="none" fill="#2aaaac"/>
  </g>
</svg>
