<svg id="AI_chat" xmlns="http://www.w3.org/2000/svg" width="18.581" height="16.25" viewBox="0 0 18.581 16.25">
  <path id="Path_306" data-name="Path 306" d="M32.79,30h-7A5.8,5.8,0,0,0,20,35.791h0a5.782,5.782,0,0,0,5.791,5.791h4.645L29.291,45.67a.575.575,0,0,0,.991.4l3.778-4.614a5.781,5.781,0,0,0,4.521-5.636h0A5.809,5.809,0,0,0,32.79,30Zm3.283,9.1a4.641,4.641,0,0,1-3.283,1.363h-7a4.645,4.645,0,0,1,0-9.291h6.968A4.665,4.665,0,0,1,36.073,39.1Z" transform="translate(-20 -30)" fill="#2aaaac" fill-rule="evenodd"/>
  <circle id="Ellipse_1" data-name="Ellipse 1" cx="1.177" cy="1.177" r="1.177" transform="translate(4.645 4.645)" fill="#2aaaac"/>
  <circle id="Ellipse_2" data-name="Ellipse 2" cx="1.177" cy="1.177" r="1.177" transform="translate(8.114 4.645)" fill="#2aaaac"/>
  <circle id="Ellipse_3" data-name="Ellipse 3" cx="1.177" cy="1.177" r="1.177" transform="translate(11.582 4.645)" fill="#2aaaac"/>
</svg>
