<svg xmlns="http://www.w3.org/2000/svg" width="35.502" height="51.37" viewBox="0 0 35.502 51.37">
  <path id="Path_3390" data-name="Path 3390" d="M5800.622,1502.806s4.55-1.618,6.716,1.027.9,2.957.9,2.957a18.911,18.911,0,0,1-18.135,10.879c-13.623-.324-16.733-13.836-16.733-13.836l-.265-31.309a3.845,3.845,0,0,1,3.3-2.5c2.75-.442,3.434,1.589,3.434,1.589l-4.762,15.883,7.038-18.726s1.651-2.706,4.335-2.441,2.983,3.148,2.983,3.148l-1.85,4.661-10.956,14.515,14.961-17.98s2.6-2.777,5.094-1.2.917,4.661.917,4.661l-13,15.041s6.16-4.447,13-1.18,8.035,7.531,8.035,7.531a5.248,5.248,0,0,1-2.253,4.295c-2.328,1.461-5.781-1.183-5.781-1.183s-1.69-4.544-7.493-3.112-5.5,6.27-5.5,6.27.339,6.341,6.584,6.426S5800.622,1502.806,5800.622,1502.806Z" transform="translate(-5773.1 -1466.305)" fill="#224c7c"/>
</svg>
