<svg id="Component_133_21" data-name="Component 133 – 21" xmlns="http://www.w3.org/2000/svg" width="59.852" height="60.005" viewBox="0 0 59.852 60.005">
  <path id="Path_3440" data-name="Path 3440" d="M-12855.439-1272.5l-13.57,1.4s-.582-2.155-4.2-2.271-9.552.058-9.844,0a8.067,8.067,0,0,1-5.3-1.573c-2.62-1.922-10.518-9.281-10.518-9.281a2.65,2.65,0,0,1,1.966-2.551c2.136-.862,8.262,4.143,8.262,4.143a9.131,9.131,0,0,0,6.252,2.431c3.729-.117,9.018-.148,9.018-.148s.835-.04.822-.821a.751.751,0,0,0-.822-.735l-8.091-.288s-.953-3.341,1.438-4.054,6.653-.228,6.653-.228h7.5a8.222,8.222,0,0,1,6.348,4.485C-12857.536-1277.858-12855.439-1272.5-12855.439-1272.5Z" transform="translate(12913.508 1326.956)" fill="#224c7c"/>
  <path id="Path_3441" data-name="Path 3441" d="M-12931.867-1385.062v-12.182a36.4,36.4,0,0,0,7.538-1.514c3.727-1.223,3.493-1.515,7.63-.815a43.783,43.783,0,0,1,5.533,1.165s-5.106,6.506-5.533,6.726-2.4-.083-2.854.147a1.522,1.522,0,0,0-.523,2.272c.756,1.165,8.678,4.752,9.313,5.424s1.344,3.75-2.267,3.691c-1.916-.714-4.112-1.02-6.883-2.049-2.079-.772-4.282-1.407-4.895-2.508C-12926.316-1387.807-12931.867-1385.062-12931.867-1385.062Z" transform="translate(12937.727 1409.94)" fill="#224c7c"/>
  <path id="Path_3442" data-name="Path 3442" d="M-12951.907-1379.143h1.924v-15.9h-3.9Z" transform="translate(12953.887 1406.342)" fill="#224c7c"/>
  <path id="Subtraction_13" data-name="Subtraction 13" d="M12.115,39.446,0,29.588l6.74,1.98a4.585,4.585,0,0,0,.822.067,3.736,3.736,0,0,0,3.546-2.047c1.205-2.527.128-4.387-.582-4.893-.631-.449-6.707-4.183-6.769-4.221L20.952,0,35.238,12.246l-23.123,27.2h0ZM16.366,13.8a5.849,5.849,0,0,0-5.854,5.854,6.191,6.191,0,0,0,.461,2.333,6.468,6.468,0,0,0,1.257,1.978,6,6,0,0,0,1.862,1.368,5.341,5.341,0,0,0,2.274.511,6.375,6.375,0,0,0,4.368-1.884,6.769,6.769,0,0,0,1.411-1.979,5.523,5.523,0,0,0,.529-2.327,5.193,5.193,0,0,0-.528-2.273,6.067,6.067,0,0,0-1.409-1.862A6.611,6.611,0,0,0,16.366,13.8Z" transform="translate(17.398)" fill="#224c7c"/>
  <path id="Path_3444" data-name="Path 3444" d="M-12790.1-1222.1c0-.386-.274-2.316,0-2.316s15.89-1.344,15.89-1.344.653,3.771,0,3.66S-12790.1-1222.1-12790.1-1222.1Z" transform="translate(12833.776 1282.099)" fill="#224c7c"/>
  <path id="Path_3447" data-name="Path 3447" d="M-12542.3-1164.936h1.38a.178.178,0,0,0,0-.245c-.1-.14-2.686-3.155-2.686-3.155a3.843,3.843,0,0,0,1.8-.715,2.122,2.122,0,0,0,.595-1.279h1.079v-.952h-1.138a.877.877,0,0,0-.074-.394,2.338,2.338,0,0,0-.285-.456h1.5v-.907h-5.135v1.095s1.162.006,1.665.073a2.211,2.211,0,0,1,1.018.589h-2.683v.952h2.683a.675.675,0,0,1-.349.635,2.879,2.879,0,0,1-1.108.374h-1.226v.986Z" transform="translate(12576.768 1189.27)" fill="#224c7c"/>
</svg>
