<svg xmlns="http://www.w3.org/2000/svg" width="21.909" height="23.114" viewBox="0 0 21.909 23.114">
  <g id="Component_138_71" data-name="Component 138 – 71" transform="translate(0 0)">
    <path id="Union_7" data-name="Union 7" d="M19.094,20.471l1.307-.763,1.508,2.643-1.307.763ZM2.5,22.351l1.509-2.643,1.306.763L3.8,23.114Zm-.079-3.578a1,1,0,0,1-1-1v-6.1h18.43v6.1a1,1,0,0,1-1,1ZM0,10.967V9.547H1.984V2.458s.1-2.2,1.506-2.435S7.741,1.379,7.741,1.379H9.994S6.129,3.754,6.129,3.521a12.159,12.159,0,0,1,.954-1.769S4.679.436,3.794.731s-.915,1.13-.959,1.727,0,7.089,0,7.089h18.43v1.419Z" transform="translate(0 0)" fill="#2aaaac"/>
  </g>
</svg>
