<svg xmlns="http://www.w3.org/2000/svg" width="56.684" height="57.726" viewBox="0 0 56.684 57.726">
  <g id="Group_2915" data-name="Group 2915" transform="translate(10666.365 -2065.156)">
    <path id="Path_3520" data-name="Path 3520" d="M0,0,18.81,10.395V57.726H0Z" transform="translate(-10628.491 2065.156)" fill="#224c7c"/>
    <path id="Path_3534" data-name="Path 3534" d="M0,.012,14.607,0l.311,1.513L.327,1.607Z" transform="translate(-10625.724 2115.697) rotate(9)" fill="#f5f5f5"/>
    <path id="Path_3536" data-name="Path 3536" d="M0,.012,14.607,0l.311,1.513L.327,1.607Z" transform="translate(-10625.724 2109.286) rotate(9)" fill="#f5f5f5"/>
    <path id="Path_3538" data-name="Path 3538" d="M0,.012,14.607,0l.311,1.513L.327,1.607Z" transform="translate(-10625.724 2102.875) rotate(9)" fill="#f5f5f5"/>
    <path id="Path_3540" data-name="Path 3540" d="M0,.012,14.607,0l.311,1.513L.327,1.607Z" transform="translate(-10625.724 2096.465) rotate(9)" fill="#f5f5f5"/>
    <path id="Path_3542" data-name="Path 3542" d="M0,.012,14.607,0l.311,1.513L.327,1.607Z" transform="translate(-10625.724 2090.054) rotate(9)" fill="#f5f5f5"/>
    <path id="Path_3544" data-name="Path 3544" d="M0,.012,14.607,0l.311,1.513L.327,1.607Z" transform="translate(-10625.724 2083.644) rotate(9)" fill="#f5f5f5"/>
    <path id="Path_3546" data-name="Path 3546" d="M0,.012,14.607,0l.311,1.513L.327,1.607Z" transform="translate(-10625.724 2077.234) rotate(9)" fill="#f5f5f5"/>
    <path id="Path_3533" data-name="Path 3533" d="M0,.012,14.607,0l.311,1.478L.327,1.57Z" transform="translate(-10625.73 2112.49) rotate(9)" fill="#f5f5f5"/>
    <path id="Path_3537" data-name="Path 3537" d="M0,.012,14.607,0l.311,1.478L.327,1.57Z" transform="translate(-10625.73 2106.08) rotate(9)" fill="#f5f5f5"/>
    <path id="Path_3539" data-name="Path 3539" d="M0,.012,14.607,0l.311,1.478L.327,1.57Z" transform="translate(-10625.73 2099.669) rotate(9)" fill="#f5f5f5"/>
    <path id="Path_3541" data-name="Path 3541" d="M0,.012,14.607,0l.311,1.478L.327,1.57Z" transform="translate(-10625.73 2093.259) rotate(9)" fill="#f5f5f5"/>
    <path id="Path_3543" data-name="Path 3543" d="M0,.012,14.607,0l.311,1.478L.327,1.57Z" transform="translate(-10625.73 2086.848) rotate(9)" fill="#f5f5f5"/>
    <path id="Path_3545" data-name="Path 3545" d="M0,.012,14.607,0l.311,1.478L.327,1.57Z" transform="translate(-10625.73 2080.438) rotate(9)" fill="#f5f5f5"/>
    <path id="Path_3519" data-name="Path 3519" d="M0,7.463,21.4,0V45.4H0Z" transform="translate(-10642.76 2077.48)" fill="#224c7c"/>
    <rect id="Rectangle_1242" data-name="Rectangle 1242" width="17" height="1" transform="translate(-10640.327 2119.51)" fill="#f5f5f5"/>
    <rect id="Rectangle_1243" data-name="Rectangle 1243" width="17" height="1" transform="translate(-10640.327 2114.51)" fill="#f5f5f5"/>
    <rect id="Rectangle_1244" data-name="Rectangle 1244" width="17" height="1" transform="translate(-10640.327 2110.51)" fill="#f5f5f5"/>
    <rect id="Rectangle_1245" data-name="Rectangle 1245" width="17" height="1" transform="translate(-10640.327 2105.51)" fill="#f5f5f5"/>
    <rect id="Rectangle_1248" data-name="Rectangle 1248" width="17" height="1" transform="translate(-10640.327 2100.51)" fill="#f5f5f5"/>
    <rect id="Rectangle_1249" data-name="Rectangle 1249" width="17" height="1" transform="translate(-10640.327 2091.51)" fill="#f5f5f5"/>
    <rect id="Rectangle_1252" data-name="Rectangle 1252" width="17" height="1" transform="translate(-10640.327 2086.51)" fill="#f5f5f5"/>
    <path id="Path_3521" data-name="Path 3521" d="M0,0S3.723,1.559,14.592,1.585s26.983-1,26.983-1L40.247,2.382S23.653,3.24,14.3,3.234,2.838,2.358,2.838,2.358Z" transform="matrix(0.966, 0.259, -0.259, 0.966, -10665.528, 2100.985)" fill="#224c7c"/>
    <path id="Path_3518" data-name="Path 3518" d="M1.912,4.812S3.973,6.3,12.257,8.466s22.791,5.022,22.791,5.022v9.128H5.734Z" transform="translate(-10663.54 2100.267)" fill="#224c7c"/>
    <path id="Path_3535" data-name="Path 3535" d="M0,0,6.155,15.584l-3.911-.273Z" transform="matrix(0.998, -0.07, 0.07, 0.998, -10659.99, 2107.187)" fill="#f5f5f5"/>
    <rect id="Rectangle_1253" data-name="Rectangle 1253" width="12" height="1" transform="translate(-10647.327 2115.51)" fill="#f5f5f5"/>
    <rect id="Rectangle_1254" data-name="Rectangle 1254" width="17" height="1" transform="translate(-10647.327 2120.51)" fill="#f5f5f5"/>
    <rect id="Rectangle_1255" data-name="Rectangle 1255" width="17" height="1" transform="translate(-10647.327 2117.51)" fill="#f5f5f5"/>
    <rect id="Rectangle_1256" data-name="Rectangle 1256" width="3" height="1" transform="translate(-10647.327 2112.51)" fill="#f5f5f5"/>
    <rect id="Rectangle_1257" data-name="Rectangle 1257" width="17" height="1" transform="translate(-10640.327 2095.51)" fill="#f5f5f5"/>
  </g>
</svg>
