<svg xmlns="http://www.w3.org/2000/svg" width="235.712" height="240.047" viewBox="0 0 235.712 240.047">
  <g id="Group_2963" data-name="Group 2963" transform="translate(10666.365 -2065.156)">
    <g id="Path_3520" data-name="Path 3520" transform="translate(-10508.871 2065.156)" fill="#224c7c">
      <path d="M 77.71800994873047 239.5465087890625 L 0.5000125765800476 239.5465087890625 L 0.5000125765800476 0.8475697040557861 L 77.71800994873047 43.5191650390625 L 77.71800994873047 239.5465087890625 Z" stroke="none"/>
      <path d="M 1.000015258789063 1.695144653320313 L 1.000015258789063 239.0464935302734 L 77.21800994873047 239.0464935302734 L 77.21800994873047 43.81414794921875 L 1.000015258789063 1.695144653320313 M 1.52587890625e-05 0 L 78.21800994873047 43.22421264648438 L 78.21800994873047 240.0464935302734 L 1.52587890625e-05 240.0464935302734 L 1.52587890625e-05 0 Z" stroke="none" fill="#f9feff"/>
    </g>
    <path id="Path_3534" data-name="Path 3534" d="M0,.049,60.743,0l1.292,6.292L1.362,6.682Z" transform="translate(-10497.362 2275.321) rotate(9)" fill="#f5f5f5"/>
    <path id="Path_3536" data-name="Path 3536" d="M0,.049,60.743,0l1.292,6.292L1.362,6.682Z" transform="translate(-10497.362 2248.664) rotate(9)" fill="#f5f5f5"/>
    <path id="Path_3538" data-name="Path 3538" d="M0,.049,60.743,0l1.292,6.292L1.362,6.682Z" transform="translate(-10497.362 2222.006) rotate(9)" fill="#f5f5f5"/>
    <path id="Path_3540" data-name="Path 3540" d="M0,.049,60.743,0l1.292,6.292L1.362,6.682Z" transform="translate(-10497.362 2195.349) rotate(9)" fill="#f5f5f5"/>
    <path id="Path_3542" data-name="Path 3542" d="M0,.049,60.743,0l1.292,6.292L1.362,6.682Z" transform="translate(-10497.362 2168.692) rotate(9)" fill="#f5f5f5"/>
    <path id="Path_3544" data-name="Path 3544" d="M0,.049,60.743,0l1.292,6.292L1.362,6.682Z" transform="translate(-10497.362 2142.035) rotate(9)" fill="#f5f5f5"/>
    <path id="Path_3546" data-name="Path 3546" d="M0,.049,60.743,0l1.292,6.292L1.362,6.682Z" transform="translate(-10497.362 2115.378) rotate(9)" fill="#f5f5f5"/>
    <path id="Path_3533" data-name="Path 3533" d="M0,.048,60.743,0l1.292,6.146L1.362,6.527Z" transform="translate(-10497.391 2261.989) rotate(9)" fill="#f5f5f5"/>
    <path id="Path_3537" data-name="Path 3537" d="M0,.048,60.743,0l1.292,6.146L1.362,6.527Z" transform="translate(-10497.391 2235.331) rotate(9)" fill="#f5f5f5"/>
    <path id="Path_3539" data-name="Path 3539" d="M0,.048,60.743,0l1.292,6.146L1.362,6.527Z" transform="translate(-10497.391 2208.674) rotate(9)" fill="#f5f5f5"/>
    <path id="Path_3541" data-name="Path 3541" d="M0,.048,60.743,0l1.292,6.146L1.362,6.527Z" transform="translate(-10497.391 2182.016) rotate(9)" fill="#f5f5f5"/>
    <path id="Path_3543" data-name="Path 3543" d="M0,.048,60.743,0l1.292,6.146L1.362,6.527Z" transform="translate(-10497.391 2155.359) rotate(9)" fill="#f5f5f5"/>
    <path id="Path_3545" data-name="Path 3545" d="M0,.048,60.743,0l1.292,6.146L1.362,6.527Z" transform="translate(-10497.391 2128.701) rotate(9)" fill="#f5f5f5"/>
    <g id="Path_3519" data-name="Path 3519" transform="translate(-10568.204 2116.402)" fill="#224c7c">
      <path d="M 88.50672149658203 188.3006134033203 L 0.5000035762786865 188.3006134033203 L 0.5000035762786865 31.38955879211426 L 88.50672149658203 0.7038519978523254 L 88.50672149658203 188.3006134033203 Z" stroke="none"/>
      <path d="M 88.00672149658203 1.407699584960938 L 1 31.74472045898438 L 1 187.8006134033203 L 88.00672149658203 187.8006134033203 L 88.00672149658203 1.407699584960938 M 89.00672149658203 0 L 89.00672149658203 188.8006134033203 L 0 188.8006134033203 L 0 31.03434753417969 L 89.00672149658203 0 Z" stroke="none" fill="#f9feff"/>
    </g>
    <rect id="Rectangle_1242" data-name="Rectangle 1242" width="71" height="4" transform="translate(-10557.764 2290.843)" fill="#f5f5f5"/>
    <rect id="Rectangle_1243" data-name="Rectangle 1243" width="71" height="5" transform="translate(-10557.764 2269.843)" fill="#f5f5f5"/>
    <rect id="Rectangle_1244" data-name="Rectangle 1244" width="71" height="4" transform="translate(-10557.764 2253.843)" fill="#f5f5f5"/>
    <rect id="Rectangle_1245" data-name="Rectangle 1245" width="71" height="5" transform="translate(-10557.764 2232.843)" fill="#f5f5f5"/>
    <rect id="Rectangle_1248" data-name="Rectangle 1248" width="71" height="3" transform="translate(-10557.764 2212.843)" fill="#f5f5f5"/>
    <rect id="Rectangle_1249" data-name="Rectangle 1249" width="71" height="5" transform="translate(-10557.764 2173.843)" fill="#f5f5f5"/>
    <rect id="Rectangle_1252" data-name="Rectangle 1252" width="71" height="4" transform="translate(-10557.764 2153.843)" fill="#f5f5f5"/>
    <g id="Path_3521" data-name="Path 3521" transform="matrix(0.966, 0.259, -0.259, 0.966, -10662.885, 2214.145)" fill="#224c7c">
      <path d="M 59.85967254638672 12.94758415222168 L 59.46680068969727 12.94745349884033 C 39.51169204711914 12.93510627746582 27.67371559143066 11.95812797546387 21.25678062438965 11.14069271087646 C 14.92735767364502 10.33442974090576 12.47365283966064 9.519706726074219 12.05746269226074 9.369215965270996 L 2.37067174911499 1.319846749305725 C 4.497777938842773 1.947219610214233 8.034751892089844 2.842521190643311 13.30643272399902 3.747323513031006 C 22.01147651672363 5.241410255432129 37.29617309570313 7.034084320068359 60.67734527587891 7.089736461639404 C 61.24047470092773 7.091084480285645 61.81417083740234 7.091736793518066 62.3839111328125 7.091736793518066 C 85.71952056884766 7.091736793518066 114.530647277832 5.965214729309082 134.5910034179688 5.020171165466309 C 153.1579895019531 4.145470142364502 167.853515625 3.260972738265991 171.8432006835938 3.015367031097412 L 167.1018676757813 9.416388511657715 C 162.6430969238281 9.643959999084473 97.22489166259766 12.94758415222168 59.85967254638672 12.94758415222168 Z" stroke="none"/>
      <path d="M 4.467559814453125 2.412206649780273 L 12.30812072753906 8.927423477172852 C 12.87619018554688 9.122204780578613 15.39396667480469 9.896646499633789 21.4581298828125 10.66223526000977 C 27.8553466796875 11.46987152099609 39.64247131347656 12.43519020080566 59.46717071533203 12.4474630355835 L 59.85932922363281 12.44757652282715 C 96.66211700439453 12.44757652282715 160.6996917724609 9.241029739379883 166.8406372070313 8.929034233093262 L 170.8027954101563 3.579930305480957 C 165.6648864746094 3.892256736755371 151.7971649169922 4.710125923156738 134.6145324707031 5.519599437713623 C 114.548828125 6.464894771575928 85.72928619384766 7.591735363006592 62.38394165039063 7.591735363006592 C 61.81380462646484 7.591735363006592 61.23966979980469 7.591076374053955 60.6761474609375 7.589735507965088 C 37.26025390625 7.534008502960205 21.94578552246094 5.73744010925293 13.22184753417969 4.240121841430664 C 9.473526000976563 3.596783638000488 6.59283447265625 2.956418991088867 4.467559814453125 2.412206649780273 M -1.52587890625e-05 8.58306884765625e-06 C -1.52587890625e-05 8.58306884765625e-06 15.48321533203125 6.48216724395752 60.67853546142578 6.589735507965088 C 61.24126434326172 6.59107494354248 61.81461334228516 6.591744422912598 62.38394165039063 6.591744422912598 C 107.5394134521484 6.591744422912598 172.8844146728516 2.449689865112305 172.8844146728516 2.449689865112305 L 167.3631744384766 9.903644561767578 C 167.3631744384766 9.903644561767578 98.82062530517578 13.44758415222168 59.85932922363281 13.44758415222168 C 59.7257080078125 13.44758415222168 59.59941101074219 13.44754505157471 59.46648406982422 13.4474630355835 C 20.57630920410156 13.42339420318604 11.80241394042969 9.807394981384277 11.80241394042969 9.807394981384277 L -1.52587890625e-05 8.58306884765625e-06 Z" stroke="none" fill="#f9feff"/>
    </g>
    <g id="Path_3518" data-name="Path 3518" transform="translate(-10648.577 2226.358)" fill="#224c7c">
      <path d="M 139.2051696777344 78.34605407714844 L 18.2094669342041 78.34605407714844 L 2.647845983505249 5.857082843780518 C 3.851920127868652 6.552413463592529 6.22015905380249 7.794086456298828 10.31160354614258 9.4888916015625 C 16.20951271057129 11.93200016021729 26.98109436035156 15.82372760772705 44.80332946777344 20.48974609375 C 77.40231323242188 29.02444839477539 133.8643798828125 40.24223709106445 139.2051696777344 41.29842376708984 L 139.2051696777344 78.34605407714844 Z" stroke="none"/>
      <path d="M 3.367294311523438 6.826225280761719 L 18.61353302001953 77.84605407714844 L 138.7051696777344 77.84605407714844 L 138.7051696777344 41.70915222167969 C 131.4062957763672 40.26274108886719 76.60541534423828 29.33267593383789 44.67669677734375 20.97345352172852 C 26.82709503173828 16.30025482177734 16.03256988525391 12.39990997314453 10.1202392578125 9.950836181640625 C 6.910385131835938 8.621208190917969 4.745880126953125 7.56341552734375 3.367294311523438 6.826225280761719 M 1.912109375 4.812019348144531 C 1.912109375 4.812019348144531 10.481689453125 10.9871826171875 44.92996978759766 20.00605392456055 C 79.37821960449219 29.02490997314453 139.7051696777344 40.88749313354492 139.7051696777344 40.88749313354492 L 139.7051696777344 78.84605407714844 L 17.805419921875 78.84605407714844 L 1.912109375 4.812019348144531 Z" stroke="none" fill="#f9feff"/>
    </g>
    <path id="Path_3535" data-name="Path 3535" d="M0,0,25.6,64.805,9.333,63.668Z" transform="matrix(0.998, -0.07, 0.07, 0.998, -10639.855, 2239.936)" fill="#f5f5f5"/>
    <rect id="Rectangle_1253" data-name="Rectangle 1253" width="50" height="4" transform="translate(-10587.764 2274.843)" fill="#f5f5f5"/>
    <rect id="Rectangle_1254" data-name="Rectangle 1254" width="71" height="5" transform="translate(-10587.764 2294.843)" fill="#f5f5f5"/>
    <rect id="Rectangle_1255" data-name="Rectangle 1255" width="71" height="4" transform="translate(-10587.764 2282.843)" fill="#f5f5f5"/>
    <rect id="Rectangle_1256" data-name="Rectangle 1256" width="13" height="5" transform="translate(-10587.764 2261.843)" fill="#f5f5f5"/>
    <rect id="Rectangle_1257" data-name="Rectangle 1257" width="71" height="5" transform="translate(-10557.764 2190.843)" fill="#f5f5f5"/>
  </g>
</svg>
