<svg xmlns="http://www.w3.org/2000/svg" width="27.826" height="29.689" viewBox="0 0 27.826 29.689">
  <g id="Group_2656" data-name="Group 2656" transform="translate(0)">
    <path id="Path_3498" data-name="Path 3498" d="M4.433.317s4-.749,4.653.057.058,3.618-.337,4.26-2.89.81-2.89.81S3.8,8.195,3.939,10.973a9.853,9.853,0,0,0,2.22,5.18s2.368-.1,2.676.8,1.249,3.365-.111,4.724-4.687-1.135-4.687-1.135A14.151,14.151,0,0,1,.006,11.3C-.182,5.6,4.433.317,4.433.317Z" transform="translate(0 14.074) rotate(-45)" fill="#398496"/>
    <path id="Path_3499" data-name="Path 3499" d="M.329,1.209A12.773,12.773,0,0,1,6.007,0a13.932,13.932,0,0,1,5.768,1.157s.511.663.365,1.128-.949.732-.949.732A11.01,11.01,0,0,0,5.817,1.854C2.351,1.854.9,2.926.9,2.926S.172,2.8.028,2.374.329,1.209.329,1.209Z" transform="matrix(0.695, 0.719, -0.719, 0.695, 14.524, 5.993)" fill="#398496"/>
    <path id="Path_3500" data-name="Path 3500" d="M.144,2.917A17.237,17.237,0,0,1,8.974,0a14.562,14.562,0,0,1,7.935,2.328,1.881,1.881,0,0,1,.072,1.282,1.893,1.893,0,0,1-1.073.71,11.045,11.045,0,0,0-7.3-2.438A9.5,9.5,0,0,0,1.437,4.942S.467,4.83.144,4.323A1.959,1.959,0,0,1,.144,2.917Z" transform="matrix(0.695, 0.719, -0.719, 0.695, 15.964, 0)" fill="#398496"/>
  </g>
</svg>
