<svg xmlns="http://www.w3.org/2000/svg" width="24.86" height="27.069" viewBox="0 0 24.86 27.069">
  <path id="Path_3501" data-name="Path 3501" d="M-7429.7-2322.973a9.8,9.8,0,0,0,6.7-1.727c3.514-2.326,6.412-7.645,6.635-8.15a5.135,5.135,0,0,0,0-1.886s3.795.151,4.461,2.461-1.888,6.927-1.888,6.927a28.011,28.011,0,0,1,6.432,0,2.888,2.888,0,0,1,2.382,2.375s.284,7.6-1.044,10.681c-.613,1.425-1.161,1.507-1.915,2.093a17.264,17.264,0,0,1-3.2,2.319c-2.486,1.193-10.776-3.007-10.776-3.007a9.42,9.42,0,0,0-3.782-.609c-1.333.284-1.546,1.137-2.415,1.061a1.952,1.952,0,0,1-1.584-1.061C-7429.965-2311.956-7429.7-2322.973-7429.7-2322.973Z" transform="translate(7429.819 2334.737)" fill="#224c7c"/>
</svg>
