<svg xmlns="http://www.w3.org/2000/svg" width="13.618" height="21.584" viewBox="0 0 13.618 21.584">
  <path id="Subtraction_12" data-name="Subtraction 12" d="M6.906,21.584c-.07-.1-1.726-2.464-3.4-5.334C1.946,13.578.074,9.94.006,7.78A8.085,8.085,0,0,1,1.843,2.012,6.53,6.53,0,0,1,6.689,0l.176,0c4.666,0,6.753,3.709,6.753,7.384,0,2-1.825,5.754-3.356,8.552C8.68,18.829,7.086,21.308,6.91,21.581h0ZM6.5,3.723A3.518,3.518,0,0,0,3.061,7.3,3.518,3.518,0,0,0,6.5,10.887,3.518,3.518,0,0,0,9.947,7.3,3.518,3.518,0,0,0,6.5,3.723Z" transform="translate(0)" fill="#2aaaac"/>
</svg>
