<svg xmlns="http://www.w3.org/2000/svg" width="56.829" height="53.666" viewBox="0 0 56.829 53.666">
  <g id="Group_2477" data-name="Group 2477" transform="translate(41.326 -6.955) rotate(49)">
    <path id="Path_3385" data-name="Path 3385" d="M10.813,15.227c0-.413-1.8-3.684-2.923-7.335A51.168,51.168,0,0,1,6.231,0L0,6.316.6,22.522l.005.231A31.144,31.144,0,0,1,5.56,17.815,17.32,17.32,0,0,1,10.813,15.227Z" transform="translate(0 32.005)" fill="#224c7c"/>
    <path id="Path_3386" data-name="Path 3386" d="M9.677,44.64l-.951-4.326H6.913S1.226,28.631.188,18.552A41.558,41.558,0,0,1,2.759,0H19.105a36.7,36.7,0,0,1,2.643,18.552c-1.3,10.272-7.83,22.541-7.83,22.541H12.259V20.408H10.567V44.64Z" transform="translate(5.56 11.459)" fill="#224c7c"/>
    <path id="Path_3387" data-name="Path 3387" d="M0,9.253c.319,0,14.648.2,14.412,0a37.571,37.571,0,0,0-3.269-5.08C9.324,1.86,8.407-.022,7.132,0s-2.121,1.86-3.9,4.173A39.71,39.71,0,0,0,0,9.253Z" transform="translate(9.215 0)" fill="#224c7c"/>
    <path id="Path_3388" data-name="Path 3388" d="M0,15.227c0-.413,1.791-3.684,2.923-7.335A51.928,51.928,0,0,0,4.582,0l6.225,6.316-.593,16.206-.011.231a31.144,31.144,0,0,0-4.956-4.938A17.325,17.325,0,0,0,0,15.227Z" transform="translate(21.915 32.005)" fill="#224c7c"/>
  </g>
</svg>
