<svg xmlns="http://www.w3.org/2000/svg" width="55.978" height="56.257" viewBox="0 0 55.978 56.257">
  <g id="Group_2615" data-name="Group 2615" transform="translate(12891.478 1058.84)">
    <g id="Component_135_13" data-name="Component 135 – 13" transform="translate(-12891.478 -1058.84)">
      <path id="Path_3450" data-name="Path 3450" d="M-12782.3-1014.733c.03-.7,0-17.8,0-17.8l-14.711-11.378-8.371,6.339v19.587s.244,2.032-1.463,2.276a35.968,35.968,0,0,1-5.283,0l.895.975h8.777v-16.173h10.484v16.173h9.672" transform="translate(12835.092 1048.174)" fill="#224c7c"/>
      <path id="Path_3451" data-name="Path 3451" d="M-12764.441-992.832s.126,14.626,0,14.688-6.752,0-6.752,0v-7.315h2.438s1.251-1.438,0-1.438h-2.438v-5.5Z" transform="translate(12805.851 1011.684)" fill="#224c7c"/>
      <path id="Subtraction_16" data-name="Subtraction 16" d="M17.635,29.133H0V9L8.627,0l9.008,9c0,.192-.383,19.242,0,20.13ZM8.924,16.269A5.3,5.3,0,0,0,3.5,21.41a5.3,5.3,0,0,0,5.427,5.141A5.3,5.3,0,0,0,14.35,21.41,5.3,5.3,0,0,0,8.924,16.269ZM9.067,5.987a3.285,3.285,0,1,0,3.285,3.285A3.288,3.288,0,0,0,9.067,5.987Z" transform="translate(10.509 1.25)" fill="#224c7c"/>
      <circle id="Ellipse_93" data-name="Ellipse 93" cx="1.5" cy="1.5" r="1.5" transform="translate(18 8.483)" fill="#224c7c"/>
      <path id="Path_3453" data-name="Path 3453" d="M-12793.713-1050.032s-1.5-.993-1.25-1.244,10.127-7.565,10.127-7.565l6.5,4.626,11.441,9s.248,2-1.064,1.188-16.879-12.754-16.879-12.754Z" transform="translate(12822.852 1058.84)" fill="#224c7c"/>
      <path id="Path_3454" data-name="Path 3454" d="M-12802.465-938.745c-2.311.866-6.514,4.743-12.264,7.791a47.725,47.725,0,0,1-9.916,4.064,13.912,13.912,0,0,1-3.008-1.9,2.6,2.6,0,0,1-.406-1.839s6.736-.192,8.039-.325a2.971,2.971,0,0,0,2.742-2.934c.047-1.828-.723-3.894-2.742-3.9s-7.633-.242-7.633-.242-2.439-2.625-5.447-2.788-4.793-.3-4.793-.3v18.205h2.52s9.754,4.47,10.24,4.307,1.773.608,4.129-.449,21.246-13.026,22-14.069,1.783-2.961,1.01-4.424S-12800.158-939.611-12802.465-938.745Z" transform="translate(12853.5 974.737)" fill="#224c7c"/>
      <rect id="Rectangle_1158" data-name="Rectangle 1158" width="14" height="22" rx="2" transform="translate(0 31.483)" fill="#224c7c"/>
      <path id="Path_3455" data-name="Path 3455" d="M-12727.618-1042.8l-5.2-4.1h5.2Z" transform="translate(12778.438 1050.31)" fill="#224c7c"/>
      <path id="Path_3456" data-name="Path 3456" d="M-12542.806-1166.319h1.147a.149.149,0,0,0,0-.2c-.089-.116-2.228-2.617-2.228-2.617a3.19,3.19,0,0,0,1.489-.593,1.768,1.768,0,0,0,.494-1.061h.892v-.79h-.941a.762.762,0,0,0-.062-.327,1.97,1.97,0,0,0-.236-.378h1.239v-.752h-4.257v.908s.964,0,1.382.061a1.832,1.832,0,0,1,.844.488h-2.226v.79h2.226a.561.561,0,0,1-.289.526,2.4,2.4,0,0,1-.921.31h-1.016v.818Z" transform="translate(12562.834 1192.478)" fill="#224c7c"/>
    </g>
  </g>
</svg>
