<svg id="Component_130_1" data-name="Component 130 – 1" xmlns="http://www.w3.org/2000/svg" width="50.637" height="50.637" viewBox="0 0 50.637 50.637">
  <g id="Group_2469" data-name="Group 2469">
    <path id="path" d="M5.921,49.423C5,52.99,7.647,55.637,11.215,54.717l7.6-1.841a24.617,24.617,0,0,0,11.508,2.762,25.157,25.157,0,1,0-22.557-13.7L5.921,49.423Zm6.56-7.25a2.3,2.3,0,0,0-.23-1.726,20.721,20.721,0,1,1,7.941,7.941,2.232,2.232,0,0,0-1.726-.23l-8.056,1.956Z" transform="translate(-5 -5)" fill="#398496"/>
    <path id="Path_3411" data-name="Path 3411" d="M-207.244,3764.943c-.246-1.107-1.5-6.91-3.557-6.618s-11.084,8.435,2.49,19.25,18.907.472,18.719-.847-6.479-2.665-8.005-2.7-1.486,2.874-3.639,1.275-7.321-4.675-7.8-6.266S-207,3766.051-207.244,3764.943Z" transform="translate(227.892 -3746.178)" fill="#398496"/>
  </g>
</svg>
